<svg xmlns="http://www.w3.org/2000/svg" viewBox="0 0 900 620" role="img" aria-label="Open notebook with pen and coffee for featured writing">
  <defs>
    <linearGradient id="bg" x1="0" x2="1" y1="0" y2="1">
      <stop offset="0" stop-color="#f6ead7"/>
      <stop offset="1" stop-color="#8e6a47"/>
    </linearGradient>
    <filter id="shadow" x="-20%" y="-20%" width="140%" height="140%">
      <feDropShadow dx="0" dy="18" stdDeviation="18" flood-color="#2a1a10" flood-opacity="0.22"/>
    </filter>
  </defs>
  <rect width="900" height="620" fill="url(#bg)"/>
  <rect x="164" y="132" width="480" height="354" rx="18" fill="#f8f2e8" filter="url(#shadow)" transform="rotate(-7 404 309)"/>
  <path d="M405 117l43 364" stroke="#d3c3aa" stroke-width="7" transform="rotate(-7 404 309)"/>
  <g stroke="#8d8174" stroke-linecap="round" opacity="0.46" transform="rotate(-7 404 309)">
    <path d="M215 208h152" stroke-width="8"/>
    <path d="M215 252h142" stroke-width="6"/>
    <path d="M215 292h160" stroke-width="6"/>
    <path d="M478 202h108" stroke-width="8"/>
    <path d="M478 246h118" stroke-width="6"/>
    <path d="M478 286h92" stroke-width="6"/>
    <path d="M478 330h124" stroke-width="6"/>
  </g>
  <path d="M574 178c-41 91-75 191-98 299" stroke="#1f2228" stroke-width="18" stroke-linecap="round" transform="rotate(-7 404 309)"/>
  <path d="M558 176l55-10 8 31-55 13Z" fill="#252830" transform="rotate(-7 404 309)"/>
  <circle cx="720" cy="200" r="70" fill="#f8f2e8"/>
  <circle cx="720" cy="200" r="47" fill="#2a211b"/>
  <path d="M224 501c126-24 241 12 334-8 96-20 184-5 260 18" stroke="#fff7df" stroke-width="5" opacity="0.32"/>
</svg>
